<?xml version="1.0" encoding="UTF-8"?>
<!DOCTYPE svg PUBLIC "-//W3C//DTD SVG 1.1//EN" "http://www.w3.org/Graphics/SVG/1.1/DTD/svg11.dtd">
<svg xmlns="http://www.w3.org/2000/svg" version="1.1" width="467px" height="358px" style="shape-rendering:geometricPrecision; text-rendering:geometricPrecision; image-rendering:optimizeQuality; fill-rule:evenodd; clip-rule:evenodd" xmlns:xlink="http://www.w3.org/1999/xlink">
<g><path style="opacity:0.004" fill="#fefffe" d="M 211.5,2.5 C 212.833,3.16667 212.833,3.16667 211.5,2.5 Z"/></g>
<g><path style="opacity:0.004" fill="#fefffe" d="M 323.5,12.5 C 324.833,13.1667 324.833,13.1667 323.5,12.5 Z"/></g>
<g><path style="opacity:0.004" fill="#fefffe" d="M 342.5,13.5 C 343.833,14.1667 343.833,14.1667 342.5,13.5 Z"/></g>
<g><path style="opacity:0.004" fill="#fefffe" d="M 192.5,18.5 C 193.833,19.1667 193.833,19.1667 192.5,18.5 Z"/></g>
<g><path style="opacity:0.004" fill="#fefffe" d="M 448.5,19.5 C 449.833,20.1667 449.833,20.1667 448.5,19.5 Z"/></g>
<g><path style="opacity:0.004" fill="#fefffe" d="M 459.5,22.5 C 460.833,23.1667 460.833,23.1667 459.5,22.5 Z"/></g>
<g><path style="opacity:0.004" fill="#fefffe" d="M 144.5,23.5 C 145.833,24.1667 145.833,24.1667 144.5,23.5 Z"/></g>
<g><path style="opacity:1" fill="#369b98" d="M 70.5,26.5 C 78.8333,26.5 87.1667,26.5 95.5,26.5C 89.6213,28.1316 83.9547,28.4649 78.5,27.5C 78.3505,28.552 78.5172,29.552 79,30.5C 80.5882,32.4208 82.0882,34.4208 83.5,36.5C 88.4278,36.9265 93.0945,38.0931 97.5,40C 96.1688,41.659 94.8354,43.3257 93.5,45C 93.9054,45.9454 94.572,46.6121 95.5,47C 93.8807,47.2355 92.8807,48.0689 92.5,49.5C 81.1667,49.5 69.8333,49.5 58.5,49.5C 63.2123,48.7286 67.5456,46.8953 71.5,44C 70.8921,43.1301 70.0588,42.6301 69,42.5C 67.2341,43.2335 65.4008,43.5668 63.5,43.5C 63.6653,39.8183 63.4986,36.1516 63,32.5C 59.6433,31.2577 59.81,30.4244 63.5,30C 62.5,29.6667 61.5,29.3333 60.5,29C 63.9523,28.1153 67.2856,27.282 70.5,26.5 Z"/></g>
<g><path style="opacity:0.004" fill="#fefffe" d="M 218.5,28.5 C 219.833,29.1667 219.833,29.1667 218.5,28.5 Z"/></g>
<g><path style="opacity:1" fill="#38a091" d="M 95.5,26.5 C 102.526,25.8048 109.193,26.9715 115.5,30C 117,32.1667 118.5,34.3333 120,36.5C 119.86,39.4826 119.694,42.3159 119.5,45C 120.448,45.4828 121.448,45.6495 122.5,45.5C 122.784,47.8771 122.784,50.0438 122.5,52C 125.078,60.297 126.745,68.797 127.5,77.5C 119.833,77.5 112.167,77.5 104.5,77.5C 103.371,69.0253 101.538,60.692 99,52.5C 97.1575,50.8288 94.9908,49.8288 92.5,49.5C 92.8807,48.0689 93.8807,47.2355 95.5,47C 94.572,46.6121 93.9054,45.9454 93.5,45C 94.8354,43.3257 96.1688,41.659 97.5,40C 93.0945,38.0931 88.4278,36.9265 83.5,36.5C 82.0882,34.4208 80.5882,32.4208 79,30.5C 78.5172,29.552 78.3505,28.552 78.5,27.5C 83.9547,28.4649 89.6213,28.1316 95.5,26.5 Z"/></g>
<g><path style="opacity:1" fill="#34979e" d="M 47.5,26.5 C 47.8333,26.5 48.1667,26.5 48.5,26.5C 55.8333,26.5 63.1667,26.5 70.5,26.5C 67.2856,27.282 63.9523,28.1153 60.5,29C 61.5,29.3333 62.5,29.6667 63.5,30C 59.81,30.4244 59.6433,31.2577 63,32.5C 63.4986,36.1516 63.6653,39.8183 63.5,43.5C 65.4008,43.5668 67.2341,43.2335 69,42.5C 70.0588,42.6301 70.8921,43.1301 71.5,44C 67.5456,46.8953 63.2123,48.7286 58.5,49.5C 56.5,49.5 54.5,49.5 52.5,49.5C 51.5,49.5 50.5,49.5 49.5,49.5C 53.2314,47.4721 52.5648,46.4721 47.5,46.5C 47.5,41.5 47.5,36.5 47.5,31.5C 38.1943,31.4223 37.6943,30.4223 46,28.5C 47.0299,28.1639 47.5299,27.4972 47.5,26.5 Z"/></g>
<g><path style="opacity:0.004" fill="#fefffe" d="M 292.5,30.5 C 293.833,31.1667 293.833,31.1667 292.5,30.5 Z"/></g>
<g><path style="opacity:1" fill="#3391a5" d="M 47.5,26.5 C 47.5299,27.4972 47.0299,28.1639 46,28.5C 37.6943,30.4223 38.1943,31.4223 47.5,31.5C 47.5,36.5 47.5,41.5 47.5,46.5C 52.5648,46.4721 53.2314,47.4721 49.5,49.5C 43.1579,49.6662 36.8246,49.4995 30.5,49C 28.3333,47.5 26.1667,46 24,44.5C 20.0395,38.0527 21.2062,32.5527 27.5,28C 34.0764,26.6226 40.7431,26.1226 47.5,26.5 Z"/></g>
<g><path style="opacity:0.004" fill="#fefffe" d="M 385.5,37.5 C 386.833,38.1667 386.833,38.1667 385.5,37.5 Z"/></g>
<g><path style="opacity:0.004" fill="#fefffe" d="M 418.5,38.5 C 419.833,39.1667 419.833,39.1667 418.5,38.5 Z"/></g>
<g><path style="opacity:0.996" fill="#478c7e" d="M 129.5,73.5 C 129.5,75.1667 129.5,76.8333 129.5,78.5C 120.983,78.8261 112.65,78.4927 104.5,77.5C 112.167,77.5 119.833,77.5 127.5,77.5C 126.745,68.797 125.078,60.297 122.5,52C 122.784,50.0438 122.784,47.8771 122.5,45.5C 121.448,45.6495 120.448,45.4828 119.5,45C 119.694,42.3159 119.86,39.4826 120,36.5C 118.5,34.3333 117,32.1667 115.5,30C 109.193,26.9715 102.526,25.8048 95.5,26.5C 87.1667,26.5 78.8333,26.5 70.5,26.5C 63.1667,26.5 55.8333,26.5 48.5,26.5C 48.2178,25.2223 47.5511,24.2223 46.5,23.5C 65.0765,23.8259 83.5765,23.4925 102,22.5C 113.557,23.3948 120.891,29.3948 124,40.5C 126.03,51.4806 127.863,62.4806 129.5,73.5 Z"/></g>
<g><path style="opacity:0.565" fill="#3f7783" d="M 46.5,23.5 C 47.5511,24.2223 48.2178,25.2223 48.5,26.5C 48.1667,26.5 47.8333,26.5 47.5,26.5C 40.7431,26.1226 34.0764,26.6226 27.5,28C 21.2062,32.5527 20.0395,38.0527 24,44.5C 26.1667,46 28.3333,47.5 30.5,49C 36.8246,49.4995 43.1579,49.6662 49.5,49.5C 50.5,49.5 51.5,49.5 52.5,49.5C 53.9516,50.3019 55.6183,50.8019 57.5,51C 52.9805,51.1753 48.6472,51.6753 44.5,52.5C 37.9871,52.8332 31.6537,51.9999 25.5,50C 17.5,42 17.5,34 25.5,26C 27.087,25.1376 28.7536,24.4709 30.5,24C 35.8229,23.5006 41.1563,23.334 46.5,23.5 Z"/></g>
<g><path style="opacity:0.004" fill="#fefffe" d="M 452.5,46.5 C 453.833,47.1667 453.833,47.1667 452.5,46.5 Z"/></g>
<g><path style="opacity:0.004" fill="#fefffe" d="M 224.5,47.5 C 225.833,48.1667 225.833,48.1667 224.5,47.5 Z"/></g>
<g><path style="opacity:0.004" fill="#fefffe" d="M 289.5,47.5 C 290.833,48.1667 290.833,48.1667 289.5,47.5 Z"/></g>
<g><path style="opacity:0.261" fill="#508580" d="M 52.5,49.5 C 54.5,49.5 56.5,49.5 58.5,49.5C 69.8333,49.5 81.1667,49.5 92.5,49.5C 94.9908,49.8288 97.1575,50.8288 99,52.5C 101.538,60.692 103.371,69.0253 104.5,77.5C 112.65,78.4927 120.983,78.8261 129.5,78.5C 129.5,76.8333 129.5,75.1667 129.5,73.5C 131.002,75.8629 130.668,78.0295 128.5,80C 120.5,80.6667 112.5,80.6667 104.5,80C 103.484,79.4806 102.818,78.6473 102.5,77.5C 100.857,69.784 99.0236,62.1174 97,54.5C 96.2496,53.8742 95.4162,53.3742 94.5,53C 77.8367,52.5001 61.17,52.3334 44.5,52.5C 48.6472,51.6753 52.9805,51.1753 57.5,51C 55.6183,50.8019 53.9516,50.3019 52.5,49.5 Z"/></g>
<g><path style="opacity:0.004" fill="#fefffe" d="M 364.5,53.5 C 365.833,54.1667 365.833,54.1667 364.5,53.5 Z"/></g>
<g><path style="opacity:0.004" fill="#fefffe" d="M 234.5,57.5 C 235.833,58.1667 235.833,58.1667 234.5,57.5 Z"/></g>
<g><path style="opacity:0.004" fill="#fefffe" d="M 233.5,65.5 C 234.833,66.1667 234.833,66.1667 233.5,65.5 Z"/></g>
<g><path style="opacity:0.004" fill="#fefffe" d="M 153.5,74.5 C 154.833,75.1667 154.833,75.1667 153.5,74.5 Z"/></g>
<g><path style="opacity:0.004" fill="#fefffe" d="M 193.5,83.5 C 194.833,84.1667 194.833,84.1667 193.5,83.5 Z"/></g>
<g><path style="opacity:0.004" fill="#fefffe" d="M 456.5,84.5 C 457.833,85.1667 457.833,85.1667 456.5,84.5 Z"/></g>
<g><path style="opacity:0.184" fill="#d18e5f" d="M 417.5,90.5 C 415.03,91.8779 412.696,91.5446 410.5,89.5C 342.904,88.5037 275.238,88.1703 207.5,88.5C 177.165,88.3334 146.832,88.5 116.5,89C 113.751,90.1227 111.251,91.6227 109,93.5C 107.976,96.1351 107.143,98.8018 106.5,101.5C 104.932,95.1776 107.266,90.6776 113.5,88C 213.167,87.3333 312.833,87.3333 412.5,88C 414.193,88.8466 415.86,89.6799 417.5,90.5 Z"/></g>
<g><path style="opacity:0.004" fill="#fefffe" d="M 450.5,90.5 C 451.833,91.1667 451.833,91.1667 450.5,90.5 Z"/></g>
<g><path style="opacity:1" fill="#e98a41" d="M 207.5,88.5 C 275.238,88.1703 342.904,88.5037 410.5,89.5C 408.412,89.8652 406.079,89.8652 403.5,89.5C 352.494,89.3534 301.494,89.8534 250.5,91C 238.457,90.8503 226.79,91.6837 215.5,93.5C 194.167,93.5 172.833,93.5 151.5,93.5C 149.369,92.6862 147.036,92.1862 144.5,92C 165.674,91.5167 186.674,90.6834 207.5,89.5C 207.5,89.1667 207.5,88.8333 207.5,88.5 Z"/></g>
<g><path style="opacity:1" fill="#f48750" d="M 207.5,89.5 C 186.674,90.6834 165.674,91.5167 144.5,92C 147.036,92.1862 149.369,92.6862 151.5,93.5C 151.167,93.5 150.833,93.5 150.5,93.5C 144.491,93.3338 138.491,93.5005 132.5,94C 135.047,95.4406 137.547,95.9406 140,95.5C 145.153,99.9645 151.153,102.631 158,103.5C 159.702,104.369 160.869,105.702 161.5,107.5C 160.957,108.864 160.79,110.197 161,111.5C 162,111.167 163,110.833 164,110.5C 165.996,112.059 168.329,112.726 171,112.5C 174.796,112.429 178.462,111.763 182,110.5C 185.195,111.178 188.362,112.012 191.5,113C 208.289,114.835 224.956,116.335 241.5,117.5C 222.173,116.879 202.839,116.545 183.5,116.5C 180.833,116.5 178.167,116.5 175.5,116.5C 158.65,115.621 141.65,114.621 124.5,113.5C 121.528,110.374 119.195,106.874 117.5,103C 118.261,100.776 118.761,98.6089 119,96.5C 118.667,96.1667 118.333,95.8333 118,95.5C 114.925,101.036 112.425,100.702 110.5,94.5C 118.472,90.9621 126.805,89.9621 135.5,91.5C 159.45,89.6616 183.45,88.9949 207.5,89.5 Z"/></g>
<g><path style="opacity:1" fill="#f68d3c" d="M 150.5,93.5 C 150.833,93.5 151.167,93.5 151.5,93.5C 172.833,93.5 194.167,93.5 215.5,93.5C 222.508,93.3337 229.508,93.5004 236.5,94C 233.833,94.3333 231.167,94.6667 228.5,95C 230.5,95.3333 232.5,95.6667 234.5,96C 234.167,96.3333 233.833,96.6667 233.5,97C 235.169,98.669 237.169,99.5023 239.5,99.5C 239.64,97.8762 238.973,96.7096 237.5,96C 239.134,95.5065 240.801,95.3398 242.5,95.5C 242.5,98.1667 242.5,100.833 242.5,103.5C 246.182,103.665 249.848,103.499 253.5,103C 251.388,102.094 250.555,100.594 251,98.5C 253.999,100.066 257.165,101.232 260.5,102C 260.167,102.333 259.833,102.667 259.5,103C 260.793,103.49 262.127,103.657 263.5,103.5C 263.5,104.833 263.5,106.167 263.5,107.5C 270.349,107.394 277.016,108.061 283.5,109.5C 283.5,108.167 283.5,106.833 283.5,105.5C 289.842,105.334 296.175,105.5 302.5,106C 303.337,107.011 303.67,108.178 303.5,109.5C 315.039,110.602 326.706,111.602 338.5,112.5C 338.833,114.167 339.833,115.167 341.5,115.5C 344.783,116.327 348.116,116.66 351.5,116.5C 351.5,118.167 351.5,119.833 351.5,121.5C 354.833,121.5 358.167,121.5 361.5,121.5C 362.544,127.636 364.21,133.636 366.5,139.5C 367.167,138.167 367.833,136.833 368.5,135.5C 370.604,137.851 372.104,140.518 373,143.5C 373.192,141.423 373.692,139.423 374.5,137.5C 376.639,141.878 377.973,146.544 378.5,151.5C 379.167,150.167 379.833,148.833 380.5,147.5C 380.833,147.833 381.167,148.167 381.5,148.5C 382.99,153.062 384.156,157.729 385,162.5C 385.249,161.376 385.749,160.376 386.5,159.5C 387.83,161.347 387.497,162.847 385.5,164C 387.982,167.432 388.815,171.266 388,175.5C 387.085,174.672 386.419,173.672 386,172.5C 385.333,176.833 385.333,181.167 386,185.5C 386.383,186.056 386.883,186.389 387.5,186.5C 386.041,190.046 384.874,193.712 384,197.5C 383.163,199.844 381.829,201.844 380,203.5C 379.506,205.134 379.34,206.801 379.5,208.5C 378.883,208.611 378.383,208.944 378,209.5C 377.667,203.5 377.333,197.5 377,191.5C 375.772,186.762 374.272,182.095 372.5,177.5C 371.158,175.995 369.492,175.328 367.5,175.5C 368.531,170.354 366.864,166.354 362.5,163.5C 360.167,155.833 355.167,150.833 347.5,148.5C 345.995,147.158 345.328,145.492 345.5,143.5C 338.262,139.881 330.929,136.214 323.5,132.5C 324.833,131.833 326.167,131.167 327.5,130.5C 325.167,129.833 322.833,129.167 320.5,128.5C 319.754,127.264 319.421,125.93 319.5,124.5C 317.265,124.795 315.265,124.461 313.5,123.5C 314.186,122.152 315.186,120.985 316.5,120C 293.595,117.62 270.595,116.287 247.5,116C 239.549,114.61 231.549,113.61 223.5,113C 222.135,111.318 220.635,111.151 219,112.5C 217.833,110.667 216.333,109.167 214.5,108C 211.389,107.556 208.723,106.223 206.5,104C 201.833,103.667 197.167,103.333 192.5,103C 186.483,102.22 180.816,100.553 175.5,98C 167.833,97 160.167,96 152.5,95C 151.584,94.7216 150.918,94.2216 150.5,93.5 Z"/></g>
<g><path style="opacity:1" fill="#f49136" d="M 403.5,89.5 C 403.389,90.1174 403.056,90.6174 402.5,91C 375.161,91.1668 347.827,91.6668 320.5,92.5C 330.817,93.3323 341.151,93.8323 351.5,94C 351.374,96.2342 351.707,98.5676 352.5,101C 359.716,103.274 366.382,106.608 372.5,111C 374.134,111.494 375.801,111.66 377.5,111.5C 377.508,116.184 379.175,120.184 382.5,123.5C 383.167,126.833 383.833,130.167 384.5,133.5C 386.001,134.752 387.668,135.752 389.5,136.5C 393.384,140.947 396.051,146.114 397.5,152C 396.55,154.235 396.55,156.402 397.5,158.5C 399.093,154.701 399.926,150.701 400,146.5C 401.268,146.384 402.602,146.051 404,145.5C 404.168,141.319 405.335,137.486 407.5,134C 406.852,132.56 406.519,131.06 406.5,129.5C 407.552,129.649 408.552,129.483 409.5,129C 411.085,122.975 413.751,117.142 417.5,111.5C 413.544,121.953 409.877,132.619 406.5,143.5C 405.06,149.046 403.06,154.38 400.5,159.5C 395.625,168.059 391.292,177.059 387.5,186.5C 386.883,186.389 386.383,186.056 386,185.5C 385.333,181.167 385.333,176.833 386,172.5C 386.419,173.672 387.085,174.672 388,175.5C 388.815,171.266 387.982,167.432 385.5,164C 387.497,162.847 387.83,161.347 386.5,159.5C 385.749,160.376 385.249,161.376 385,162.5C 384.156,157.729 382.99,153.062 381.5,148.5C 381.167,148.167 380.833,147.833 380.5,147.5C 379.833,148.833 379.167,150.167 378.5,151.5C 377.973,146.544 376.639,141.878 374.5,137.5C 373.692,139.423 373.192,141.423 373,143.5C 372.104,140.518 370.604,137.851 368.5,135.5C 367.833,136.833 367.167,138.167 366.5,139.5C 364.21,133.636 362.544,127.636 361.5,121.5C 358.167,121.5 354.833,121.5 351.5,121.5C 351.5,119.833 351.5,118.167 351.5,116.5C 348.116,116.66 344.783,116.327 341.5,115.5C 339.833,115.167 338.833,114.167 338.5,112.5C 326.706,111.602 315.039,110.602 303.5,109.5C 303.67,108.178 303.337,107.011 302.5,106C 296.175,105.5 289.842,105.334 283.5,105.5C 283.5,106.833 283.5,108.167 283.5,109.5C 277.016,108.061 270.349,107.394 263.5,107.5C 263.5,106.167 263.5,104.833 263.5,103.5C 262.127,103.657 260.793,103.49 259.5,103C 259.833,102.667 260.167,102.333 260.5,102C 257.165,101.232 253.999,100.066 251,98.5C 250.555,100.594 251.388,102.094 253.5,103C 249.848,103.499 246.182,103.665 242.5,103.5C 242.5,100.833 242.5,98.1667 242.5,95.5C 240.801,95.3398 239.134,95.5065 237.5,96C 238.973,96.7096 239.64,97.8762 239.5,99.5C 237.169,99.5023 235.169,98.669 233.5,97C 233.833,96.6667 234.167,96.3333 234.5,96C 232.5,95.6667 230.5,95.3333 228.5,95C 231.167,94.6667 233.833,94.3333 236.5,94C 229.508,93.5004 222.508,93.3337 215.5,93.5C 226.79,91.6837 238.457,90.8503 250.5,91C 301.494,89.8534 352.494,89.3534 403.5,89.5 Z"/></g>
<g><path style="opacity:1" fill="#f4962d" d="M 403.5,89.5 C 406.079,89.8652 408.412,89.8652 410.5,89.5C 412.696,91.5446 415.03,91.8779 417.5,90.5C 418.167,90.5 418.5,90.8333 418.5,91.5C 421.228,98.4096 420.895,105.076 417.5,111.5C 413.751,117.142 411.085,122.975 409.5,129C 408.552,129.483 407.552,129.649 406.5,129.5C 406.519,131.06 406.852,132.56 407.5,134C 405.335,137.486 404.168,141.319 404,145.5C 402.602,146.051 401.268,146.384 400,146.5C 399.926,150.701 399.093,154.701 397.5,158.5C 396.55,156.402 396.55,154.235 397.5,152C 396.051,146.114 393.384,140.947 389.5,136.5C 387.668,135.752 386.001,134.752 384.5,133.5C 383.833,130.167 383.167,126.833 382.5,123.5C 379.175,120.184 377.508,116.184 377.5,111.5C 375.801,111.66 374.134,111.494 372.5,111C 366.382,106.608 359.716,103.274 352.5,101C 351.707,98.5676 351.374,96.2342 351.5,94C 341.151,93.8323 330.817,93.3323 320.5,92.5C 347.827,91.6668 375.161,91.1668 402.5,91C 403.056,90.6174 403.389,90.1174 403.5,89.5 Z"/></g>
<g><path style="opacity:1" fill="#f48947" d="M 150.5,93.5 C 150.918,94.2216 151.584,94.7216 152.5,95C 160.167,96 167.833,97 175.5,98C 180.816,100.553 186.483,102.22 192.5,103C 197.167,103.333 201.833,103.667 206.5,104C 208.723,106.223 211.389,107.556 214.5,108C 216.333,109.167 217.833,110.667 219,112.5C 220.635,111.151 222.135,111.318 223.5,113C 231.549,113.61 239.549,114.61 247.5,116C 270.595,116.287 293.595,117.62 316.5,120C 315.186,120.985 314.186,122.152 313.5,123.5C 303.788,123.924 294.288,125.591 285,128.5C 278.143,125.874 270.977,124.874 263.5,125.5C 263.5,125.167 263.5,124.833 263.5,124.5C 276.484,123.244 289.484,122.077 302.5,121C 287.231,118.805 271.898,118.138 256.5,119C 255.584,119.278 254.918,119.778 254.5,120.5C 253.833,120.167 253.167,119.833 252.5,119.5C 249.091,118.097 245.425,117.43 241.5,117.5C 224.956,116.335 208.289,114.835 191.5,113C 188.362,112.012 185.195,111.178 182,110.5C 178.462,111.763 174.796,112.429 171,112.5C 168.329,112.726 165.996,112.059 164,110.5C 163,110.833 162,111.167 161,111.5C 160.79,110.197 160.957,108.864 161.5,107.5C 160.869,105.702 159.702,104.369 158,103.5C 151.153,102.631 145.153,99.9645 140,95.5C 137.547,95.9406 135.047,95.4406 132.5,94C 138.491,93.5005 144.491,93.3338 150.5,93.5 Z"/></g>
<g><path style="opacity:0.004" fill="#fefffe" d="M 449.5,95.5 C 450.833,96.1667 450.833,96.1667 449.5,95.5 Z"/></g>
<g><path style="opacity:1" fill="#e38553" d="M 94.5,101.5 C 78.1739,102.117 61.8406,102.617 45.5,103C 44.6198,104.356 44.2865,105.856 44.5,107.5C 50.7967,106.461 57.1301,106.294 63.5,107C 68.8201,108.881 74.3201,110.048 80,110.5C 85.083,109.693 90.2497,109.193 95.5,109C 98.6598,107.177 99.3265,104.677 97.5,101.5C 100.669,106.083 99.6685,109.75 94.5,112.5C 78.3385,111.669 62.0051,111.169 45.5,111C 41.6829,107.922 41.6829,104.588 45.5,101C 62.0052,100.172 78.3385,100.338 94.5,101.5 Z"/></g>
<g><path style="opacity:1" fill="#e78055" d="M 207.5,88.5 C 207.5,88.8333 207.5,89.1667 207.5,89.5C 183.45,88.9949 159.45,89.6616 135.5,91.5C 126.805,89.9621 118.472,90.9621 110.5,94.5C 112.425,100.702 114.925,101.036 118,95.5C 118.333,95.8333 118.667,96.1667 119,96.5C 118.761,98.6089 118.261,100.776 117.5,103C 119.195,106.874 121.528,110.374 124.5,113.5C 141.65,114.621 158.65,115.621 175.5,116.5C 156.83,116.667 138.164,116.5 119.5,116C 117.655,114.872 115.655,114.372 113.5,114.5C 108.865,111.572 106.531,107.239 106.5,101.5C 107.143,98.8018 107.976,96.1351 109,93.5C 111.251,91.6227 113.751,90.1227 116.5,89C 146.832,88.5 177.165,88.3334 207.5,88.5 Z"/></g>
<g><path style="opacity:1" fill="#f58d4a" d="M 94.5,101.5 C 95.5,101.5 96.5,101.5 97.5,101.5C 99.3265,104.677 98.6598,107.177 95.5,109C 90.2497,109.193 85.083,109.693 80,110.5C 74.3201,110.048 68.8201,108.881 63.5,107C 57.1301,106.294 50.7967,106.461 44.5,107.5C 44.2865,105.856 44.6198,104.356 45.5,103C 61.8406,102.617 78.1739,102.117 94.5,101.5 Z"/></g>
<g><path style="opacity:0.22" fill="#c78668" d="M 97.5,101.5 C 96.5,101.5 95.5,101.5 94.5,101.5C 78.3385,100.338 62.0052,100.172 45.5,101C 41.6829,104.588 41.6829,107.922 45.5,111C 62.0051,111.169 78.3385,111.669 94.5,112.5C 77.83,112.667 61.1633,112.5 44.5,112C 37.8333,107.667 37.8333,103.333 44.5,99C 61.1667,98.3333 77.8333,98.3333 94.5,99C 95.9423,99.3768 96.9423,100.21 97.5,101.5 Z"/></g>
<g><path style="opacity:0.71" fill="#cf7a4e" d="M 183.5,116.5 C 202.839,116.545 222.173,116.879 241.5,117.5C 245.425,117.43 249.091,118.097 252.5,119.5C 239.808,119.732 227.141,119.398 214.5,118.5C 204.167,117.833 193.833,117.167 183.5,116.5 Z"/></g>
<g><path style="opacity:0.059" fill="#c17f5f" d="M 113.5,114.5 C 115.655,114.372 117.655,114.872 119.5,116C 138.164,116.5 156.83,116.667 175.5,116.5C 178.167,116.5 180.833,116.5 183.5,116.5C 193.833,117.167 204.167,117.833 214.5,118.5C 182.165,118.155 149.832,117.655 117.5,117C 115.934,116.392 114.6,115.558 113.5,114.5 Z"/></g>
<g><path style="opacity:0.216" fill="#ce8c50" d="M 418.5,91.5 C 422.226,95.3845 423.393,100.051 422,105.5C 417.296,118.468 412.129,131.134 406.5,143.5C 409.877,132.619 413.544,121.953 417.5,111.5C 420.895,105.076 421.228,98.4096 418.5,91.5 Z"/></g>
<g><path style="opacity:0.137" fill="#d57c50" d="M 263.5,124.5 C 252.825,124.623 242.159,124.957 231.5,125.5C 242.784,123.978 254.117,122.978 265.5,122.5C 270.651,121.673 275.984,121.173 281.5,121C 272.506,120.5 263.506,120.334 254.5,120.5C 254.918,119.778 255.584,119.278 256.5,119C 271.898,118.138 287.231,118.805 302.5,121C 289.484,122.077 276.484,123.244 263.5,124.5 Z"/></g>
<g><path style="opacity:0.004" fill="#fefffe" d="M 44.5,120.5 C 45.8333,121.167 45.8333,121.167 44.5,120.5 Z"/></g>
<g><path style="opacity:0.004" fill="#fefffe" d="M 110.5,120.5 C 111.833,121.167 111.833,121.167 110.5,120.5 Z"/></g>
<g><path style="opacity:0.687" fill="#c9775e" d="M 265.5,122.5 C 254.117,122.978 242.784,123.978 231.5,125.5C 223.316,125.174 215.316,125.508 207.5,126.5C 196.5,126.5 185.5,126.5 174.5,126.5C 157.167,126.5 139.833,126.5 122.5,126.5C 169.984,124.426 217.651,123.093 265.5,122.5 Z"/></g>
<g><path style="opacity:0.004" fill="#fefffe" d="M 37.5,128.5 C 38.8333,129.167 38.8333,129.167 37.5,128.5 Z"/></g>
<g><path style="opacity:1" fill="#f37268" d="M 122.5,126.5 C 139.833,126.5 157.167,126.5 174.5,126.5C 165.035,127.919 155.368,128.753 145.5,129C 150.66,129.334 155.16,131.167 159,134.5C 159.164,137.84 160.664,140.34 163.5,142C 161.473,142.498 159.473,142.331 157.5,141.5C 155.269,141.981 155.102,142.648 157,143.5C 162.308,145.172 167.808,146.339 173.5,147C 170.002,147.518 166.336,148.518 162.5,150C 168.935,151.039 175.269,151.873 181.5,152.5C 162.167,152.5 142.833,152.5 123.5,152.5C 123.611,151.883 123.944,151.383 124.5,151C 123.013,148.78 121.346,146.78 119.5,145C 120.858,141.468 120.524,138.135 118.5,135C 118.667,134.167 118.833,133.333 119,132.5C 120.586,131.624 122.086,130.624 123.5,129.5C 121.565,128.787 121.232,127.787 122.5,126.5 Z"/></g>
<g><path style="opacity:1" fill="#f4795b" d="M 174.5,126.5 C 185.5,126.5 196.5,126.5 207.5,126.5C 207.586,127.496 207.252,128.329 206.5,129C 201.055,129.35 196.055,130.35 191.5,132C 193.249,133.292 195.082,134.458 197,135.5C 199.86,135.112 202.86,135.112 206,135.5C 209.878,141.98 215.711,144.98 223.5,144.5C 218.198,145.329 212.864,145.829 207.5,146C 211.3,147.429 215.3,148.262 219.5,148.5C 222.698,147.649 225.532,146.649 228,145.5C 229.23,146.275 229.563,147.275 229,148.5C 227.667,148.5 226.333,148.5 225,148.5C 223.916,149.665 223.083,150.998 222.5,152.5C 247.844,154 273.177,155.667 298.5,157.5C 298.167,158.167 297.833,158.833 297.5,159.5C 294.026,160.099 291.026,161.432 288.5,163.5C 287.183,163.179 285.849,162.846 284.5,162.5C 269.513,163.281 254.513,163.947 239.5,164.5C 239.5,164.167 239.5,163.833 239.5,163.5C 255.312,161.917 271.312,160.917 287.5,160.5C 287.5,159.5 287.5,158.5 287.5,157.5C 282.654,158.518 278.154,158.518 274,157.5C 272.213,157.759 270.713,158.425 269.5,159.5C 268.713,157.896 267.38,157.229 265.5,157.5C 237.655,155.835 209.655,154.168 181.5,152.5C 175.269,151.873 168.935,151.039 162.5,150C 166.336,148.518 170.002,147.518 173.5,147C 167.808,146.339 162.308,145.172 157,143.5C 155.102,142.648 155.269,141.981 157.5,141.5C 159.473,142.331 161.473,142.498 163.5,142C 160.664,140.34 159.164,137.84 159,134.5C 155.16,131.167 150.66,129.334 145.5,129C 155.368,128.753 165.035,127.919 174.5,126.5 Z"/></g>
<g><path style="opacity:1" fill="#f78447" d="M 263.5,125.5 C 261.031,126.317 258.365,126.817 255.5,127C 261.069,127.079 266.069,128.745 270.5,132C 261.167,132.667 261.167,133.333 270.5,134C 271.167,135 271.833,136 272.5,137C 278.196,137.17 283.862,137.67 289.5,138.5C 288.515,140.098 288.349,141.765 289,143.5C 292.047,142.875 295.214,142.709 298.5,143C 299.815,141.605 299.481,140.605 297.5,140C 299.762,139.358 301.929,138.525 304,137.5C 307.333,138.833 310.667,138.833 314,137.5C 315.324,138.88 316.657,139.214 318,138.5C 318.483,139.448 318.649,140.448 318.5,141.5C 313.833,141.5 309.167,141.5 304.5,141.5C 304.413,144.598 304.913,144.932 306,142.5C 306.333,143.167 306.667,143.833 307,144.5C 311.553,143.943 316.053,143.943 320.5,144.5C 321.902,144.865 322.902,145.699 323.5,147C 322.385,148.235 322.385,149.402 323.5,150.5C 325.5,151.5 327.5,152.5 329.5,153.5C 331.05,152.268 332.717,151.768 334.5,152C 335.376,154.376 337.042,155.876 339.5,156.5C 338.271,157.281 336.938,157.781 335.5,158C 338.818,159.731 341.318,162.231 343,165.5C 344.134,160.203 344.968,160.203 345.5,165.5C 350.08,166.262 352.413,169.096 352.5,174C 356.033,178.882 359.7,183.715 363.5,188.5C 362.311,189.429 360.978,189.762 359.5,189.5C 360.437,194.703 362.937,199.037 367,202.5C 367.333,207.5 367.667,212.5 368,217.5C 368.333,217.167 368.667,216.833 369,216.5C 370.085,217.293 371.252,217.96 372.5,218.5C 374.188,216.146 376.188,214.146 378.5,212.5C 378.5,213.167 378.5,213.833 378.5,214.5C 375.97,217.688 373.304,220.855 370.5,224C 367.832,224.567 365.166,225.067 362.5,225.5C 358.552,225.883 354.552,225.383 350.5,224C 351.09,222.491 351.756,220.991 352.5,219.5C 353.167,219.833 353.833,220.167 354.5,220.5C 356.453,219.239 358.453,218.073 360.5,217C 357.782,215.585 357.115,213.585 358.5,211C 357.5,210.167 356.5,209.333 355.5,208.5C 356.167,207.833 356.833,207.167 357.5,206.5C 355.995,205.158 355.328,203.492 355.5,201.5C 354.167,201.5 352.833,201.5 351.5,201.5C 351.66,199.801 351.494,198.134 351,196.5C 347.333,189.167 343.667,181.833 340,174.5C 338.951,175.517 337.784,175.684 336.5,175C 332.408,171.411 328.408,167.578 324.5,163.5C 323.614,162.675 323.281,161.675 323.5,160.5C 320.801,160.534 318.301,159.867 316,158.5C 315,158.833 314,159.167 313,159.5C 304.791,156.205 296.291,153.872 287.5,152.5C 287.5,151.5 287.5,150.5 287.5,149.5C 276.803,148.823 266.136,148.823 255.5,149.5C 255.5,148.5 255.5,147.5 255.5,146.5C 257.696,146.435 259.696,145.768 261.5,144.5C 258.476,142.987 255.809,140.987 253.5,138.5C 245.64,136.633 237.973,134.133 230.5,131C 228.136,129.988 226.802,128.655 226.5,127C 231.533,126.272 236.533,126.439 241.5,127.5C 248.678,125.655 256.011,124.988 263.5,125.5 Z"/></g>
<g><path style="opacity:0.977" fill="#d8696f" d="M 122.5,126.5 C 121.232,127.787 121.565,128.787 123.5,129.5C 122.086,130.624 120.586,131.624 119,132.5C 118.833,133.333 118.667,134.167 118.5,135C 120.524,138.135 120.858,141.468 119.5,145C 121.346,146.78 123.013,148.78 124.5,151C 123.944,151.383 123.611,151.883 123.5,152.5C 119.621,150.794 117.121,147.794 116,143.5C 115.133,139.044 115.466,134.711 117,130.5C 118.147,128.181 119.981,126.848 122.5,126.5 Z"/></g>
<g><path style="opacity:1" fill="#f78841" d="M 313.5,123.5 C 315.265,124.461 317.265,124.795 319.5,124.5C 319.421,125.93 319.754,127.264 320.5,128.5C 322.833,129.167 325.167,129.833 327.5,130.5C 326.167,131.167 324.833,131.833 323.5,132.5C 330.929,136.214 338.262,139.881 345.5,143.5C 345.328,145.492 345.995,147.158 347.5,148.5C 355.167,150.833 360.167,155.833 362.5,163.5C 366.864,166.354 368.531,170.354 367.5,175.5C 369.492,175.328 371.158,175.995 372.5,177.5C 374.272,182.095 375.772,186.762 377,191.5C 377.333,197.5 377.667,203.5 378,209.5C 378.383,208.944 378.883,208.611 379.5,208.5C 379.567,209.959 379.234,211.292 378.5,212.5C 376.188,214.146 374.188,216.146 372.5,218.5C 371.252,217.96 370.085,217.293 369,216.5C 368.667,216.833 368.333,217.167 368,217.5C 367.667,212.5 367.333,207.5 367,202.5C 362.937,199.037 360.437,194.703 359.5,189.5C 360.978,189.762 362.311,189.429 363.5,188.5C 359.7,183.715 356.033,178.882 352.5,174C 352.413,169.096 350.08,166.262 345.5,165.5C 344.968,160.203 344.134,160.203 343,165.5C 341.318,162.231 338.818,159.731 335.5,158C 336.938,157.781 338.271,157.281 339.5,156.5C 337.042,155.876 335.376,154.376 334.5,152C 332.717,151.768 331.05,152.268 329.5,153.5C 327.5,152.5 325.5,151.5 323.5,150.5C 322.385,149.402 322.385,148.235 323.5,147C 322.902,145.699 321.902,144.865 320.5,144.5C 316.053,143.943 311.553,143.943 307,144.5C 306.667,143.833 306.333,143.167 306,142.5C 304.913,144.932 304.413,144.598 304.5,141.5C 309.167,141.5 313.833,141.5 318.5,141.5C 318.649,140.448 318.483,139.448 318,138.5C 316.657,139.214 315.324,138.88 314,137.5C 310.667,138.833 307.333,138.833 304,137.5C 301.929,138.525 299.762,139.358 297.5,140C 299.481,140.605 299.815,141.605 298.5,143C 295.214,142.709 292.047,142.875 289,143.5C 288.349,141.765 288.515,140.098 289.5,138.5C 283.862,137.67 278.196,137.17 272.5,137C 271.833,136 271.167,135 270.5,134C 261.167,133.333 261.167,132.667 270.5,132C 266.069,128.745 261.069,127.079 255.5,127C 258.365,126.817 261.031,126.317 263.5,125.5C 270.977,124.874 278.143,125.874 285,128.5C 294.288,125.591 303.788,123.924 313.5,123.5 Z"/></g>
<g><path style="opacity:0.39" fill="#c9646b" d="M 50.5,137.5 C 69.1696,137.333 87.8363,137.5 106.5,138C 110.875,143.121 110.209,147.455 104.5,151C 87.1667,151.667 69.8333,151.667 52.5,151C 46.4676,149.047 44.9676,145.213 48,139.5C 48.9947,138.934 49.828,138.267 50.5,137.5 Z"/></g>
<g><path style="opacity:1" fill="#f26f6b" d="M 52.5,139.5 C 69.8365,139.333 87.1699,139.5 104.5,140C 108.482,142.952 108.482,145.952 104.5,149C 87.1667,149.667 69.8333,149.667 52.5,149C 48.5808,145.84 48.5808,142.673 52.5,139.5 Z"/></g>
<g><path style="opacity:0.456" fill="#c96d60" d="M 123.5,152.5 C 142.833,152.5 162.167,152.5 181.5,152.5C 209.655,154.168 237.655,155.835 265.5,157.5C 219.517,155.778 173.517,154.612 127.5,154C 125.942,153.79 124.609,153.29 123.5,152.5 Z"/></g>
<g><path style="opacity:0.773" fill="#ce685c" d="M 239.5,163.5 C 231.5,163.5 223.5,163.5 215.5,163.5C 202.183,164.306 188.85,164.639 175.5,164.5C 184.833,163.833 194.167,163.167 203.5,162.5C 204.791,162.737 205.791,162.404 206.5,161.5C 227.321,160.193 248.321,159.526 269.5,159.5C 270.713,158.425 272.213,157.759 274,157.5C 278.154,158.518 282.654,158.518 287.5,157.5C 287.5,158.5 287.5,159.5 287.5,160.5C 271.312,160.917 255.312,161.917 239.5,163.5 Z"/></g>
<g><path style="opacity:0.502" fill="#c36f7b" d="M 206.5,161.5 C 205.791,162.404 204.791,162.737 203.5,162.5C 180.49,162.484 157.49,162.984 134.5,164C 131.471,166.176 128.471,168.343 125.5,170.5C 126.183,166.98 128.183,164.48 131.5,163C 156.484,161.743 181.484,161.243 206.5,161.5 Z"/></g>
<g><path style="opacity:1" fill="#f56e67" d="M 215.5,163.5 C 214.602,164.158 213.602,164.824 212.5,165.5C 216.325,166.265 220.158,166.932 224,167.5C 224.772,167.355 225.439,167.022 226,166.5C 228.941,167.059 231.775,167.893 234.5,169C 230.814,169.559 227.147,170.226 223.5,171C 222.167,171.667 222.167,172.333 223.5,173C 229.942,173.083 236.275,173.749 242.5,175C 238.374,174.206 234.708,175.373 231.5,178.5C 233.005,179.842 233.672,181.508 233.5,183.5C 237.584,182.945 238.251,183.945 235.5,186.5C 237.571,187.976 238.571,189.976 238.5,192.5C 236.167,192.5 233.833,192.5 231.5,192.5C 225.213,191.84 218.879,190.674 212.5,189C 211.597,184.374 208.93,181.207 204.5,179.5C 203.269,178.349 203.269,177.183 204.5,176C 207.226,175.818 209.893,175.318 212.5,174.5C 209.108,174.131 205.441,173.297 201.5,172C 202.646,171.355 203.646,170.522 204.5,169.5C 206.423,169.63 208.256,169.964 210,170.5C 211.399,169.773 212.899,169.273 214.5,169C 212.051,168.275 209.717,167.275 207.5,166C 196.839,165.5 186.172,165.333 175.5,165.5C 175.5,165.167 175.5,164.833 175.5,164.5C 188.85,164.639 202.183,164.306 215.5,163.5 Z"/></g>
<g><path style="opacity:0.004" fill="#fefffe" d="M 428.5,164.5 C 429.833,165.167 429.833,165.167 428.5,164.5 Z"/></g>
<g><path style="opacity:1" fill="#f67260" d="M 215.5,163.5 C 223.5,163.5 231.5,163.5 239.5,163.5C 239.5,163.833 239.5,164.167 239.5,164.5C 238.957,164.56 238.624,164.893 238.5,165.5C 243.853,166.211 249.186,166.878 254.5,167.5C 257.3,166.268 260.3,165.601 263.5,165.5C 266.167,165.833 268.833,166.167 271.5,166.5C 266.533,167.329 261.533,167.829 256.5,168C 254.869,170.451 253.036,170.951 251,169.5C 246.72,171.066 247.22,172.066 252.5,172.5C 256.144,171.585 259.81,171.419 263.5,172C 264.05,173.845 265.05,175.345 266.5,176.5C 267.474,178.743 267.808,181.076 267.5,183.5C 270.856,185.504 274.523,187.004 278.5,188C 280.957,189.512 280.957,190.846 278.5,192C 283.019,192.175 287.353,192.675 291.5,193.5C 284.5,193.5 277.5,193.5 270.5,193.5C 259.806,193.709 249.14,193.375 238.5,192.5C 238.571,189.976 237.571,187.976 235.5,186.5C 238.251,183.945 237.584,182.945 233.5,183.5C 233.672,181.508 233.005,179.842 231.5,178.5C 234.708,175.373 238.374,174.206 242.5,175C 236.275,173.749 229.942,173.083 223.5,173C 222.167,172.333 222.167,171.667 223.5,171C 227.147,170.226 230.814,169.559 234.5,169C 231.775,167.893 228.941,167.059 226,166.5C 225.439,167.022 224.772,167.355 224,167.5C 220.158,166.932 216.325,166.265 212.5,165.5C 213.602,164.824 214.602,164.158 215.5,163.5 Z"/></g>
<g><path style="opacity:0.004" fill="#fefffe" d="M 94.5,168.5 C 95.8333,169.167 95.8333,169.167 94.5,168.5 Z"/></g>
<g><path style="opacity:1" fill="#f06676" d="M 167.5,165.5 C 166.468,168.422 167.801,169.755 171.5,169.5C 174.024,167.951 176.857,166.951 180,166.5C 181.894,166.58 183.727,166.913 185.5,167.5C 186.833,168.167 186.833,168.833 185.5,169.5C 182.446,170.347 179.446,171.347 176.5,172.5C 178.686,173.221 180.853,173.887 183,174.5C 183.914,173.346 184.747,173.513 185.5,175C 182.833,175.667 182.833,176.333 185.5,177C 182.044,177.18 178.711,177.847 175.5,179C 178.076,180.122 180.743,181.122 183.5,182C 182.359,182.741 182.359,183.575 183.5,184.5C 186.086,185.48 188.753,185.813 191.5,185.5C 191.5,186.5 191.5,187.5 191.5,188.5C 188.447,188.111 185.78,188.777 183.5,190.5C 180.5,190.5 177.5,190.5 174.5,190.5C 169.684,189.674 164.684,189.174 159.5,189C 160.167,188.667 160.833,188.333 161.5,188C 160,187.833 158.5,187.667 157,187.5C 149.602,187.761 142.102,188.261 134.5,189C 134.167,188.667 133.833,188.333 133.5,188C 136.788,186.642 138.288,184.142 138,180.5C 139.011,179.663 140.178,179.33 141.5,179.5C 141.477,177.4 142.144,175.567 143.5,174C 141.107,172.257 139.107,170.09 137.5,167.5C 147.467,166.325 157.467,165.659 167.5,165.5 Z"/></g>
<g><path style="opacity:1" fill="#e26176" d="M 203.5,162.5 C 194.167,163.167 184.833,163.833 175.5,164.5C 175.5,164.833 175.5,165.167 175.5,165.5C 172.833,165.5 170.167,165.5 167.5,165.5C 157.467,165.659 147.467,166.325 137.5,167.5C 139.107,170.09 141.107,172.257 143.5,174C 142.144,175.567 141.477,177.4 141.5,179.5C 140.178,179.33 139.011,179.663 138,180.5C 138.288,184.142 136.788,186.642 133.5,188C 133.833,188.333 134.167,188.667 134.5,189C 142.102,188.261 149.602,187.761 157,187.5C 158.5,187.667 160,187.833 161.5,188C 160.833,188.333 160.167,188.667 159.5,189C 164.684,189.174 169.684,189.674 174.5,190.5C 160.833,190.5 147.167,190.5 133.5,190.5C 127.225,187.639 124.225,182.639 124.5,175.5C 124.507,173.631 124.84,171.964 125.5,170.5C 128.471,168.343 131.471,166.176 134.5,164C 157.49,162.984 180.49,162.484 203.5,162.5 Z"/></g>
<g><path style="opacity:1" fill="#f87857" d="M 288.5,163.5 C 295.074,166.911 302.074,169.411 309.5,171C 311.726,174.278 314.726,176.778 318.5,178.5C 319.167,181.5 319.833,184.5 320.5,187.5C 326.815,189.475 329.315,193.808 328,200.5C 329.419,202.336 330.586,204.336 331.5,206.5C 336.75,207.887 340.75,210.887 343.5,215.5C 342.486,219.187 340.819,219.854 338.5,217.5C 337.808,218.025 337.308,218.692 337,219.5C 336.667,219.167 336.333,218.833 336,218.5C 334.417,220.699 334.25,223.032 335.5,225.5C 340.695,225.179 345.695,225.513 350.5,226.5C 338.167,226.5 325.833,226.5 313.5,226.5C 315.369,225.835 317.369,225.169 319.5,224.5C 312.814,223.777 306.147,222.943 299.5,222C 301.832,220.032 303.832,217.865 305.5,215.5C 303.832,213.135 301.832,210.968 299.5,209C 300.328,208.085 301.328,207.419 302.5,207C 297.101,206.052 291.767,205.052 286.5,204C 286.957,203.586 287.291,203.086 287.5,202.5C 292.048,201.808 296.548,201.141 301,200.5C 301.414,200.957 301.914,201.291 302.5,201.5C 304.336,200.972 306.003,200.306 307.5,199.5C 310.522,199.196 313.522,198.696 316.5,198C 317.833,197.333 317.833,196.667 316.5,196C 308.105,195.639 299.771,194.806 291.5,193.5C 287.353,192.675 283.019,192.175 278.5,192C 280.957,190.846 280.957,189.512 278.5,188C 274.523,187.004 270.856,185.504 267.5,183.5C 267.808,181.076 267.474,178.743 266.5,176.5C 265.05,175.345 264.05,173.845 263.5,172C 259.81,171.419 256.144,171.585 252.5,172.5C 247.22,172.066 246.72,171.066 251,169.5C 253.036,170.951 254.869,170.451 256.5,168C 261.533,167.829 266.533,167.329 271.5,166.5C 268.833,166.167 266.167,165.833 263.5,165.5C 260.3,165.601 257.3,166.268 254.5,167.5C 249.186,166.878 243.853,166.211 238.5,165.5C 238.624,164.893 238.957,164.56 239.5,164.5C 254.513,163.947 269.513,163.281 284.5,162.5C 285.849,162.846 287.183,163.179 288.5,163.5 Z"/></g>
<g><path style="opacity:0.98" fill="#c76b74" d="M 118.5,183.5 C 117.582,181.18 116.248,179.013 114.5,177C 94.1423,176.184 77.1423,176.351 63.5,177.5C 62.0484,178.302 60.3817,178.802 58.5,179C 55.6819,182.37 56.3485,184.87 60.5,186.5C 78.3256,187.497 96.3256,187.83 114.5,187.5C 95.3377,188.662 76.0044,188.829 56.5,188C 54.4766,184.817 53.9766,181.317 55,177.5C 55.5,177 56,176.5 56.5,176C 76.1667,175.333 95.8333,175.333 115.5,176C 117.747,177.995 118.747,180.495 118.5,183.5 Z"/></g>
<g><path style="opacity:1" fill="#f77f4f" d="M 263.5,124.5 C 263.5,124.833 263.5,125.167 263.5,125.5C 256.011,124.988 248.678,125.655 241.5,127.5C 236.533,126.439 231.533,126.272 226.5,127C 226.802,128.655 228.136,129.988 230.5,131C 237.973,134.133 245.64,136.633 253.5,138.5C 255.809,140.987 258.476,142.987 261.5,144.5C 259.696,145.768 257.696,146.435 255.5,146.5C 255.5,147.5 255.5,148.5 255.5,149.5C 266.136,148.823 276.803,148.823 287.5,149.5C 287.5,150.5 287.5,151.5 287.5,152.5C 296.291,153.872 304.791,156.205 313,159.5C 314,159.167 315,158.833 316,158.5C 318.301,159.867 320.801,160.534 323.5,160.5C 323.281,161.675 323.614,162.675 324.5,163.5C 328.408,167.578 332.408,171.411 336.5,175C 337.784,175.684 338.951,175.517 340,174.5C 343.667,181.833 347.333,189.167 351,196.5C 351.494,198.134 351.66,199.801 351.5,201.5C 352.833,201.5 354.167,201.5 355.5,201.5C 355.328,203.492 355.995,205.158 357.5,206.5C 356.833,207.167 356.167,207.833 355.5,208.5C 356.5,209.333 357.5,210.167 358.5,211C 357.115,213.585 357.782,215.585 360.5,217C 358.453,218.073 356.453,219.239 354.5,220.5C 353.833,220.167 353.167,219.833 352.5,219.5C 351.756,220.991 351.09,222.491 350.5,224C 354.552,225.383 358.552,225.883 362.5,225.5C 358.6,226.43 354.6,226.763 350.5,226.5C 345.695,225.513 340.695,225.179 335.5,225.5C 334.25,223.032 334.417,220.699 336,218.5C 336.333,218.833 336.667,219.167 337,219.5C 337.308,218.692 337.808,218.025 338.5,217.5C 340.819,219.854 342.486,219.187 343.5,215.5C 340.75,210.887 336.75,207.887 331.5,206.5C 330.586,204.336 329.419,202.336 328,200.5C 329.315,193.808 326.815,189.475 320.5,187.5C 319.833,184.5 319.167,181.5 318.5,178.5C 314.726,176.778 311.726,174.278 309.5,171C 302.074,169.411 295.074,166.911 288.5,163.5C 291.026,161.432 294.026,160.099 297.5,159.5C 297.833,158.833 298.167,158.167 298.5,157.5C 273.177,155.667 247.844,154 222.5,152.5C 223.083,150.998 223.916,149.665 225,148.5C 226.333,148.5 227.667,148.5 229,148.5C 229.563,147.275 229.23,146.275 228,145.5C 225.532,146.649 222.698,147.649 219.5,148.5C 215.3,148.262 211.3,147.429 207.5,146C 212.864,145.829 218.198,145.329 223.5,144.5C 215.711,144.98 209.878,141.98 206,135.5C 202.86,135.112 199.86,135.112 197,135.5C 195.082,134.458 193.249,133.292 191.5,132C 196.055,130.35 201.055,129.35 206.5,129C 207.252,128.329 207.586,127.496 207.5,126.5C 215.316,125.508 223.316,125.174 231.5,125.5C 242.159,124.957 252.825,124.623 263.5,124.5 Z"/></g>
<g><path style="opacity:1" fill="#ef6c72" d="M 63.5,177.5 C 80.17,177.333 96.8367,177.5 113.5,178C 116.07,180.718 116.07,183.385 113.5,186C 95.8365,186.5 78.1698,186.667 60.5,186.5C 56.3485,184.87 55.6819,182.37 58.5,179C 60.3817,178.802 62.0484,178.302 63.5,177.5 Z"/></g>
<g><path style="opacity:0.514" fill="#da854e" d="M 400.5,159.5 C 393.929,178.228 386.596,196.561 378.5,214.5C 378.5,213.833 378.5,213.167 378.5,212.5C 379.234,211.292 379.567,209.959 379.5,208.5C 379.34,206.801 379.506,205.134 380,203.5C 381.829,201.844 383.163,199.844 384,197.5C 384.874,193.712 386.041,190.046 387.5,186.5C 391.292,177.059 395.625,168.059 400.5,159.5 Z"/></g>
<g><path style="opacity:0.004" fill="#fefffe" d="M 454.5,181.5 C 455.833,182.167 455.833,182.167 454.5,181.5 Z"/></g>
<g><path style="opacity:1" fill="#f36a6e" d="M 167.5,165.5 C 170.167,165.5 172.833,165.5 175.5,165.5C 186.172,165.333 196.839,165.5 207.5,166C 209.717,167.275 212.051,168.275 214.5,169C 212.899,169.273 211.399,169.773 210,170.5C 208.256,169.964 206.423,169.63 204.5,169.5C 203.646,170.522 202.646,171.355 201.5,172C 205.441,173.297 209.108,174.131 212.5,174.5C 209.893,175.318 207.226,175.818 204.5,176C 203.269,177.183 203.269,178.349 204.5,179.5C 208.93,181.207 211.597,184.374 212.5,189C 218.879,190.674 225.213,191.84 231.5,192.5C 215.485,192.136 199.485,191.469 183.5,190.5C 185.78,188.777 188.447,188.111 191.5,188.5C 191.5,187.5 191.5,186.5 191.5,185.5C 188.753,185.813 186.086,185.48 183.5,184.5C 182.359,183.575 182.359,182.741 183.5,182C 180.743,181.122 178.076,180.122 175.5,179C 178.711,177.847 182.044,177.18 185.5,177C 182.833,176.333 182.833,175.667 185.5,175C 184.747,173.513 183.914,173.346 183,174.5C 180.853,173.887 178.686,173.221 176.5,172.5C 179.446,171.347 182.446,170.347 185.5,169.5C 186.833,168.833 186.833,168.167 185.5,167.5C 183.727,166.913 181.894,166.58 180,166.5C 176.857,166.951 174.024,167.951 171.5,169.5C 167.801,169.755 166.468,168.422 167.5,165.5 Z"/></g>
<g><path style="opacity:0.7" fill="#c9585c" d="M 118.5,183.5 C 118.043,185.773 116.71,187.106 114.5,187.5C 96.3256,187.83 78.3256,187.497 60.5,186.5C 78.1698,186.667 95.8365,186.5 113.5,186C 116.07,183.385 116.07,180.718 113.5,178C 96.8367,177.5 80.17,177.333 63.5,177.5C 77.1423,176.351 94.1423,176.184 114.5,177C 116.248,179.013 117.582,181.18 118.5,183.5 Z"/></g>
<g><path style="opacity:0.004" fill="#fefffe" d="M 401.5,188.5 C 402.833,189.167 402.833,189.167 401.5,188.5 Z"/></g>
<g><path style="opacity:0.557" fill="#c96465" d="M 133.5,190.5 C 147.167,190.5 160.833,190.5 174.5,190.5C 177.5,190.5 180.5,190.5 183.5,190.5C 199.485,191.469 215.485,192.136 231.5,192.5C 233.833,192.5 236.167,192.5 238.5,192.5C 249.14,193.375 259.806,193.709 270.5,193.5C 270.5,194.167 270.5,194.833 270.5,195.5C 224.647,194.63 178.98,192.964 133.5,190.5 Z"/></g>
<g><path style="opacity:0.241" fill="#d06357" d="M 270.5,193.5 C 277.5,193.5 284.5,193.5 291.5,193.5C 299.771,194.806 308.105,195.639 316.5,196C 317.833,196.667 317.833,197.333 316.5,198C 313.522,198.696 310.522,199.196 307.5,199.5C 290.143,199.238 272.81,199.571 255.5,200.5C 253.5,200.5 251.5,200.5 249.5,200.5C 251.5,199.833 253.5,199.167 255.5,198.5C 267.816,197.796 280.15,197.296 292.5,197C 285.119,196.765 277.786,196.265 270.5,195.5C 270.5,194.833 270.5,194.167 270.5,193.5 Z"/></g>
<g><path style="opacity:0.441" fill="#c77174" d="M 255.5,198.5 C 253.5,199.167 251.5,199.833 249.5,200.5C 221.995,200.831 194.662,200.498 167.5,199.5C 196.835,199.252 226.168,198.918 255.5,198.5 Z"/></g>
<g><path style="opacity:1" fill="#f57161" d="M 307.5,199.5 C 306.003,200.306 304.336,200.972 302.5,201.5C 301.914,201.291 301.414,200.957 301,200.5C 296.548,201.141 292.048,201.808 287.5,202.5C 287.291,203.086 286.957,203.586 286.5,204C 291.767,205.052 297.101,206.052 302.5,207C 301.328,207.419 300.328,208.085 299.5,209C 301.832,210.968 303.832,213.135 305.5,215.5C 303.832,217.865 301.832,220.032 299.5,222C 306.147,222.943 312.814,223.777 319.5,224.5C 317.369,225.169 315.369,225.835 313.5,226.5C 304.833,226.5 296.167,226.5 287.5,226.5C 276.897,224.614 276.897,221.947 287.5,218.5C 283.4,215.342 281.067,211.508 280.5,207C 276.738,206.236 272.738,205.403 268.5,204.5C 268.5,203.5 268.5,202.5 268.5,201.5C 264.167,201.5 259.833,201.5 255.5,201.5C 255.5,201.167 255.5,200.833 255.5,200.5C 272.81,199.571 290.143,199.238 307.5,199.5 Z"/></g>
<g><path style="opacity:1" fill="#ec5e7e" d="M 160.5,199.5 C 164.727,201.28 169.394,202.114 174.5,202C 175.333,202.833 176.167,203.667 177,204.5C 186.119,203.952 195.785,203.286 206,202.5C 207.067,203.191 208.234,203.691 209.5,204C 208.5,204.333 207.5,204.667 206.5,205C 207.833,205.667 207.833,206.333 206.5,207C 210.929,209.261 214.596,212.428 217.5,216.5C 215.858,220.121 213.858,223.454 211.5,226.5C 188.781,226.958 166.114,226.458 143.5,225C 137.412,220.748 135.246,214.915 137,207.5C 138.5,206 140,204.5 141.5,203C 147.916,203.129 153.916,202.295 159.5,200.5C 159.5,199.833 159.833,199.5 160.5,199.5 Z"/></g>
<g><path style="opacity:1" fill="#f56b6b" d="M 255.5,201.5 C 259.833,201.5 264.167,201.5 268.5,201.5C 268.5,202.5 268.5,203.5 268.5,204.5C 272.738,205.403 276.738,206.236 280.5,207C 281.067,211.508 283.4,215.342 287.5,218.5C 276.897,221.947 276.897,224.614 287.5,226.5C 271.5,226.5 255.5,226.5 239.5,226.5C 239.15,224.374 239.15,222.041 239.5,219.5C 242.322,218.843 244.989,218.51 247.5,218.5C 245.815,216.983 244.315,215.316 243,213.5C 242.51,214.793 242.343,216.127 242.5,217.5C 241.5,217.5 240.5,217.5 239.5,217.5C 239.587,214.261 238.92,211.261 237.5,208.5C 234.328,208.072 231.328,207.905 228.5,208C 230.878,207.026 230.544,206.359 227.5,206C 236.856,203.953 246.19,202.453 255.5,201.5 Z"/></g>
<g><path style="opacity:0.004" fill="#fefffe" d="M 423.5,207.5 C 424.833,208.167 424.833,208.167 423.5,207.5 Z"/></g>
<g><path style="opacity:0.004" fill="#fefffe" d="M 29.5,209.5 C 30.8333,210.167 30.8333,210.167 29.5,209.5 Z"/></g>
<g><path style="opacity:0.004" fill="#fefffe" d="M 56.5,209.5 C 57.8333,210.167 57.8333,210.167 56.5,209.5 Z"/></g>
<g><path style="opacity:1" fill="#e55f7a" d="M 124.5,214.5 C 126.027,214.427 127.027,215.094 127.5,216.5C 127.5,218.833 127.5,221.167 127.5,223.5C 125.692,223.491 124.025,223.991 122.5,225C 106.833,225.667 91.1667,225.667 75.5,225C 72.4079,220.882 73.0745,217.549 77.5,215C 93.1631,214.5 108.83,214.333 124.5,214.5 Z"/></g>
<g><path style="opacity:1" fill="#ed6473" d="M 160.5,199.5 C 162.833,199.5 165.167,199.5 167.5,199.5C 194.662,200.498 221.995,200.831 249.5,200.5C 251.5,200.5 253.5,200.5 255.5,200.5C 255.5,200.833 255.5,201.167 255.5,201.5C 246.19,202.453 236.856,203.953 227.5,206C 230.544,206.359 230.878,207.026 228.5,208C 231.328,207.905 234.328,208.072 237.5,208.5C 238.92,211.261 239.587,214.261 239.5,217.5C 240.5,217.5 241.5,217.5 242.5,217.5C 242.343,216.127 242.51,214.793 243,213.5C 244.315,215.316 245.815,216.983 247.5,218.5C 244.989,218.51 242.322,218.843 239.5,219.5C 239.15,222.041 239.15,224.374 239.5,226.5C 230.167,226.5 220.833,226.5 211.5,226.5C 213.858,223.454 215.858,220.121 217.5,216.5C 214.596,212.428 210.929,209.261 206.5,207C 207.833,206.333 207.833,205.667 206.5,205C 207.5,204.667 208.5,204.333 209.5,204C 208.234,203.691 207.067,203.191 206,202.5C 195.785,203.286 186.119,203.952 177,204.5C 176.167,203.667 175.333,202.833 174.5,202C 169.394,202.114 164.727,201.28 160.5,199.5 Z"/></g>
<g><path style="opacity:0.192" fill="#bc6677" d="M 124.5,214.5 C 108.83,214.333 93.1631,214.5 77.5,215C 73.0745,217.549 72.4079,220.882 75.5,225C 91.1667,225.667 106.833,225.667 122.5,225C 124.025,223.991 125.692,223.491 127.5,223.5C 127.5,221.167 127.5,218.833 127.5,216.5C 129.918,218.878 130.085,221.545 128,224.5C 127.25,225.126 126.416,225.626 125.5,226C 108.5,226.667 91.5,226.667 74.5,226C 70.269,221.522 70.6023,217.522 75.5,214C 92.0052,213.172 108.339,213.338 124.5,214.5 Z"/></g>
<g><path style="opacity:0.71" fill="#c66161" d="M 239.5,226.5 C 255.5,226.5 271.5,226.5 287.5,226.5C 292.5,227.167 297.5,227.833 302.5,228.5C 286.38,228.566 270.38,228.566 254.5,228.5C 249.5,227.833 244.5,227.167 239.5,226.5 Z"/></g>
<g><path style="opacity:0.607" fill="#cf7157" d="M 378.5,214.5 C 376.204,221.961 371.204,226.461 363.5,228C 343.169,228.5 322.836,228.667 302.5,228.5C 297.5,227.833 292.5,227.167 287.5,226.5C 296.167,226.5 304.833,226.5 313.5,226.5C 325.833,226.5 338.167,226.5 350.5,226.5C 354.6,226.763 358.6,226.43 362.5,225.5C 365.166,225.067 367.832,224.567 370.5,224C 373.304,220.855 375.97,217.688 378.5,214.5 Z"/></g>
<g><path style="opacity:0.169" fill="#bd5c6f" d="M 159.5,200.5 C 153.916,202.295 147.916,203.129 141.5,203C 140,204.5 138.5,206 137,207.5C 135.246,214.915 137.412,220.748 143.5,225C 166.114,226.458 188.781,226.958 211.5,226.5C 220.833,226.5 230.167,226.5 239.5,226.5C 244.5,227.167 249.5,227.833 254.5,228.5C 218.165,228.667 181.832,228.5 145.5,228C 138.13,225.273 134.463,219.939 134.5,212C 133.895,206.875 135.895,203.208 140.5,201C 146.825,200.5 153.158,200.334 159.5,200.5 Z"/></g>
<g><path style="opacity:0.004" fill="#fefffe" d="M 161.5,231.5 C 162.833,232.167 162.833,232.167 161.5,231.5 Z"/></g>
<g><path style="opacity:0.004" fill="#fefffe" d="M 121.5,232.5 C 122.833,233.167 122.833,233.167 121.5,232.5 Z"/></g>
<g><path style="opacity:0.004" fill="#fefffe" d="M 216.5,236.5 C 217.833,237.167 217.833,237.167 216.5,236.5 Z"/></g>
<g><path style="opacity:0.004" fill="#fefffe" d="M 22.5,237.5 C 23.8333,238.167 23.8333,238.167 22.5,237.5 Z"/></g>
<g><path style="opacity:0.004" fill="#fefffe" d="M 221.5,239.5 C 222.833,240.167 222.833,240.167 221.5,239.5 Z"/></g>
<g><path style="opacity:0.004" fill="#fefffe" d="M 136.5,240.5 C 137.833,241.167 137.833,241.167 136.5,240.5 Z"/></g>
<g><path style="opacity:0.004" fill="#fefffe" d="M 406.5,245.5 C 407.833,246.167 407.833,246.167 406.5,245.5 Z"/></g>
<g><path style="opacity:0.004" fill="#fefffe" d="M 80.5,248.5 C 81.8333,249.167 81.8333,249.167 80.5,248.5 Z"/></g>
<g><path style="opacity:0.711" fill="#337474" d="M 172.5,248.5 C 211.136,249.482 249.803,249.815 288.5,249.5C 287.833,250.167 287.167,250.833 286.5,251.5C 271.167,251.5 255.833,251.5 240.5,251.5C 229.5,251.5 218.5,251.5 207.5,251.5C 196.828,251.667 186.161,251.5 175.5,251C 173.392,250.64 171.392,249.973 169.5,249C 170.448,248.517 171.448,248.351 172.5,248.5 Z"/></g>
<g><path style="opacity:0.65" fill="#377c68" d="M 288.5,249.5 C 311.169,249.333 333.836,249.5 356.5,250C 358.066,250.608 359.4,251.442 360.5,252.5C 346.536,251.552 332.536,251.219 318.5,251.5C 307.833,251.5 297.167,251.5 286.5,251.5C 287.167,250.833 287.833,250.167 288.5,249.5 Z"/></g>
<g><path style="opacity:0.71" fill="#3f7085" d="M 168.5,244.5 C 167.923,245.773 167.257,245.773 166.5,244.5C 165.926,242.941 165.26,241.441 164.5,240C 157.508,239.5 150.508,239.334 143.5,239.5C 145.971,248.749 148.137,258.083 150,267.5C 153.01,271.263 156.843,273.929 161.5,275.5C 172.046,275.423 182.713,275.423 193.5,275.5C 197.5,276.167 201.5,276.833 205.5,277.5C 191.496,277.667 177.496,277.5 163.5,277C 156.801,276.295 151.635,273.129 148,267.5C 145.396,257.794 143.063,248.127 141,238.5C 149.441,237.185 157.941,237.185 166.5,238.5C 167.372,240.45 168.039,242.45 168.5,244.5 Z"/></g>
<g><path style="opacity:1" fill="#3591ab" d="M 168.5,244.5 C 169.5,246.167 170.833,247.5 172.5,248.5C 171.448,248.351 170.448,248.517 169.5,249C 171.392,249.973 173.392,250.64 175.5,251C 186.161,251.5 196.828,251.667 207.5,251.5C 207.5,251.833 207.5,252.167 207.5,252.5C 198.284,252.978 188.95,253.978 179.5,255.5C 179.808,256.308 180.308,256.975 181,257.5C 182,257.167 183,256.833 184,256.5C 190.625,257.652 197.125,259.319 203.5,261.5C 203.5,262.833 203.5,264.167 203.5,265.5C 198.857,266.096 194.857,267.929 191.5,271C 189.744,271.202 188.078,271.702 186.5,272.5C 188.828,273.724 191.161,273.724 193.5,272.5C 195.759,272.784 197.426,273.784 198.5,275.5C 196.833,275.5 195.167,275.5 193.5,275.5C 182.713,275.423 172.046,275.423 161.5,275.5C 156.843,273.929 153.01,271.263 150,267.5C 148.137,258.083 145.971,248.749 143.5,239.5C 150.508,239.334 157.508,239.5 164.5,240C 165.26,241.441 165.926,242.941 166.5,244.5C 167.257,245.773 167.923,245.773 168.5,244.5 Z"/></g>
<g><path style="opacity:1" fill="#3597a6" d="M 207.5,252.5 C 215.422,253.302 223.422,253.802 231.5,254C 231.833,254.333 232.167,254.667 232.5,255C 231.167,255.667 229.833,256.333 228.5,257C 231.935,257.884 235.268,259.051 238.5,260.5C 234.394,262.782 230.061,264.615 225.5,266C 229.263,267.629 233.096,269.129 237,270.5C 237.333,270.167 237.667,269.833 238,269.5C 238.483,270.448 238.649,271.448 238.5,272.5C 235.751,272.726 233.084,272.393 230.5,271.5C 222.366,272.781 214.366,274.115 206.5,275.5C 203.833,275.5 201.167,275.5 198.5,275.5C 197.426,273.784 195.759,272.784 193.5,272.5C 191.161,273.724 188.828,273.724 186.5,272.5C 188.078,271.702 189.744,271.202 191.5,271C 194.857,267.929 198.857,266.096 203.5,265.5C 203.5,264.167 203.5,262.833 203.5,261.5C 197.125,259.319 190.625,257.652 184,256.5C 183,256.833 182,257.167 181,257.5C 180.308,256.975 179.808,256.308 179.5,255.5C 188.95,253.978 198.284,252.978 207.5,252.5 Z"/></g>
<g><path style="opacity:1" fill="#389e99" d="M 240.5,251.5 C 255.833,251.5 271.167,251.5 286.5,251.5C 286.611,252.117 286.944,252.617 287.5,253C 292.823,253.499 298.156,253.666 303.5,253.5C 303.5,254.833 303.5,256.167 303.5,257.5C 305.5,257.5 307.5,257.5 309.5,257.5C 309.5,258.5 309.5,259.5 309.5,260.5C 301.5,260.833 301.5,261.167 309.5,261.5C 309.5,262.833 309.5,264.167 309.5,265.5C 307.473,265.338 305.473,265.505 303.5,266C 304.548,268.2 306.048,268.7 308,267.5C 308.935,270.102 310.768,271.602 313.5,272C 309.623,272.729 305.789,272.562 302,271.5C 297.67,273.086 293.17,273.919 288.5,274C 289.737,274.232 290.737,274.732 291.5,275.5C 279.167,275.5 266.833,275.5 254.5,275.5C 254.987,274.527 255.487,273.527 256,272.5C 262.668,273.828 269.501,273.828 276.5,272.5C 276.66,270.801 276.494,269.134 276,267.5C 272,267.5 268,267.5 264,267.5C 263.502,264.518 263.335,261.518 263.5,258.5C 259.466,258.505 255.466,258.838 251.5,259.5C 251.5,258.167 251.5,256.833 251.5,255.5C 252.978,255.762 254.311,255.429 255.5,254.5C 250.1,254.131 245.1,253.131 240.5,251.5 Z"/></g>
<g><path style="opacity:1" fill="#36999e" d="M 207.5,252.5 C 207.5,252.167 207.5,251.833 207.5,251.5C 218.5,251.5 229.5,251.5 240.5,251.5C 245.1,253.131 250.1,254.131 255.5,254.5C 254.311,255.429 252.978,255.762 251.5,255.5C 251.5,256.833 251.5,258.167 251.5,259.5C 255.466,258.838 259.466,258.505 263.5,258.5C 263.335,261.518 263.502,264.518 264,267.5C 268,267.5 272,267.5 276,267.5C 276.494,269.134 276.66,270.801 276.5,272.5C 269.501,273.828 262.668,273.828 256,272.5C 255.487,273.527 254.987,274.527 254.5,275.5C 238.5,275.5 222.5,275.5 206.5,275.5C 214.366,274.115 222.366,272.781 230.5,271.5C 233.084,272.393 235.751,272.726 238.5,272.5C 238.649,271.448 238.483,270.448 238,269.5C 237.667,269.833 237.333,270.167 237,270.5C 233.096,269.129 229.263,267.629 225.5,266C 230.061,264.615 234.394,262.782 238.5,260.5C 235.268,259.051 231.935,257.884 228.5,257C 229.833,256.333 231.167,255.667 232.5,255C 232.167,254.667 231.833,254.333 231.5,254C 223.422,253.802 215.422,253.302 207.5,252.5 Z"/></g>
<g><path style="opacity:1" fill="#39a092" d="M 286.5,251.5 C 297.167,251.5 307.833,251.5 318.5,251.5C 318.611,252.117 318.944,252.617 319.5,253C 330.64,253.899 330.973,255.233 320.5,257C 322.9,257.186 325.234,257.686 327.5,258.5C 328.641,259.425 328.641,260.259 327.5,261C 328.793,261.49 330.127,261.657 331.5,261.5C 330.575,264.952 328.575,267.785 325.5,270C 326.253,271.487 327.086,271.654 328,270.5C 328.374,271.416 328.874,272.25 329.5,273C 326.167,273.333 322.833,273.667 319.5,274C 321.058,274.21 322.391,274.71 323.5,275.5C 316.833,275.5 310.167,275.5 303.5,275.5C 299.5,275.5 295.5,275.5 291.5,275.5C 290.737,274.732 289.737,274.232 288.5,274C 293.17,273.919 297.67,273.086 302,271.5C 305.789,272.562 309.623,272.729 313.5,272C 310.768,271.602 308.935,270.102 308,267.5C 306.048,268.7 304.548,268.2 303.5,266C 305.473,265.505 307.473,265.338 309.5,265.5C 309.5,264.167 309.5,262.833 309.5,261.5C 301.5,261.167 301.5,260.833 309.5,260.5C 309.5,259.5 309.5,258.5 309.5,257.5C 307.5,257.5 305.5,257.5 303.5,257.5C 303.5,256.167 303.5,254.833 303.5,253.5C 298.156,253.666 292.823,253.499 287.5,253C 286.944,252.617 286.611,252.117 286.5,251.5 Z"/></g>
<g><path style="opacity:0.004" fill="#fefffe" d="M 94.5,255.5 C 95.8333,256.167 95.8333,256.167 94.5,255.5 Z"/></g>
<g><path style="opacity:0.004" fill="#fefffe" d="M -0.5,256.5 C 0.833333,257.167 0.833333,257.167 -0.5,256.5 Z"/></g>
<g><path style="opacity:0.004" fill="#fefffe" d="M 466.5,257.5 C 466.5,257.833 466.5,258.167 466.5,258.5C 465.83,258.019 465.83,257.685 466.5,257.5 Z"/></g>
<g><path style="opacity:1" fill="#3aa28a" d="M 318.5,251.5 C 332.536,251.219 346.536,251.552 360.5,252.5C 361.468,256.151 362.468,259.818 363.5,263.5C 363.111,270.431 359.445,274.264 352.5,275C 342.839,275.5 333.172,275.666 323.5,275.5C 322.391,274.71 321.058,274.21 319.5,274C 322.833,273.667 326.167,273.333 329.5,273C 328.874,272.25 328.374,271.416 328,270.5C 327.086,271.654 326.253,271.487 325.5,270C 328.575,267.785 330.575,264.952 331.5,261.5C 330.127,261.657 328.793,261.49 327.5,261C 328.641,260.259 328.641,259.425 327.5,258.5C 325.234,257.686 322.9,257.186 320.5,257C 330.973,255.233 330.64,253.899 319.5,253C 318.944,252.617 318.611,252.117 318.5,251.5 Z"/></g>
<g><path style="opacity:0.004" fill="#fefffe" d="M 379.5,271.5 C 380.833,272.167 380.833,272.167 379.5,271.5 Z"/></g>
<g><path style="opacity:0.668" fill="#377d67" d="M 360.5,252.5 C 366.581,257.841 367.748,264.174 364,271.5C 362.961,272.71 361.794,273.71 360.5,274.5C 358.436,274.687 356.436,275.187 354.5,276C 337.328,276.828 320.328,276.662 303.5,275.5C 310.167,275.5 316.833,275.5 323.5,275.5C 333.172,275.666 342.839,275.5 352.5,275C 359.445,274.264 363.111,270.431 363.5,263.5C 362.468,259.818 361.468,256.151 360.5,252.5 Z"/></g>
<g><path style="opacity:0.174" fill="#4e817c" d="M 360.5,274.5 C 359.4,275.558 358.066,276.392 356.5,277C 340.243,277.246 324.077,278.08 308,279.5C 303.92,278.7 299.753,278.2 295.5,278C 265.301,277.545 235.301,277.378 205.5,277.5C 201.5,276.833 197.5,276.167 193.5,275.5C 195.167,275.5 196.833,275.5 198.5,275.5C 201.167,275.5 203.833,275.5 206.5,275.5C 222.5,275.5 238.5,275.5 254.5,275.5C 266.833,275.5 279.167,275.5 291.5,275.5C 295.5,275.5 299.5,275.5 303.5,275.5C 320.328,276.662 337.328,276.828 354.5,276C 356.436,275.187 358.436,274.687 360.5,274.5 Z"/></g>
<g><path style="opacity:0.004" fill="#fefffe" d="M 150.5,286.5 C 151.833,287.167 151.833,287.167 150.5,286.5 Z"/></g>
<g><path style="opacity:0.196" fill="#3f7682" d="M 194.5,284.5 C 218.893,285.058 227.726,297.058 221,320.5C 211.663,333.149 199.83,335.982 185.5,329C 176.812,322.277 173.645,313.444 176,302.5C 178.755,292.911 184.921,286.911 194.5,284.5 Z"/></g>
<g><path style="opacity:1" fill="#3296a2" d="M 207.5,288.5 C 212.041,290.201 215.541,293.201 218,297.5C 218.333,297.167 218.667,296.833 219,296.5C 223.258,306.625 222.092,315.959 215.5,324.5C 212.11,326.308 208.443,326.475 204.5,325C 203.075,323.286 203.408,321.953 205.5,321C 202.903,313.824 202.903,306.657 205.5,299.5C 204.08,297.291 202.413,295.291 200.5,293.5C 201.808,290.321 204.141,288.654 207.5,288.5 Z"/></g>
<g><path style="opacity:1" fill="#3092a9" d="M 207.5,288.5 C 204.141,288.654 201.808,290.321 200.5,293.5C 202.413,295.291 204.08,297.291 205.5,299.5C 202.903,306.657 202.903,313.824 205.5,321C 203.408,321.953 203.075,323.286 204.5,325C 208.443,326.475 212.11,326.308 215.5,324.5C 213.287,326.86 210.621,328.694 207.5,330C 186.726,332.559 176.892,323.392 178,302.5C 180.702,293.798 186.535,288.631 195.5,287C 199.806,286.088 203.806,286.588 207.5,288.5 Z"/></g>
<g><path style="opacity:0.004" fill="#fefffe" d="M 454.5,298.5 C 455.833,299.167 455.833,299.167 454.5,298.5 Z"/></g>
<g><path style="opacity:0.294" fill="#437f7b" d="M 307.5,284.5 C 331.455,283.62 341.288,294.953 337,318.5C 327.727,333.278 315.227,336.778 299.5,329C 286.65,315.928 286.316,302.595 298.5,289C 301.592,287.454 304.592,285.954 307.5,284.5 Z"/></g>
<g><path style="opacity:1" fill="#369b9a" d="M 310.5,287.5 C 312.5,287.833 314.5,288.167 316.5,288.5C 316.477,294.601 318.31,299.934 322,304.5C 322.499,309.489 322.666,314.489 322.5,319.5C 323.833,319.5 325.167,319.5 326.5,319.5C 326.579,320.93 326.246,322.264 325.5,323.5C 325.855,324.522 326.522,325.189 327.5,325.5C 325.486,327.643 322.986,329.309 320,330.5C 299.817,331.643 290.817,321.976 293,301.5C 296.062,293.263 301.895,288.596 310.5,287.5 Z"/></g>
<g><path style="opacity:1" fill="#399f90" d="M 310.5,287.5 C 322.838,285.596 331.338,290.596 336,302.5C 337.292,310.666 335.458,318 330.5,324.5C 329.583,325.127 328.583,325.461 327.5,325.5C 326.522,325.189 325.855,324.522 325.5,323.5C 326.246,322.264 326.579,320.93 326.5,319.5C 325.167,319.5 323.833,319.5 322.5,319.5C 322.666,314.489 322.499,309.489 322,304.5C 318.31,299.934 316.477,294.601 316.5,288.5C 314.5,288.167 312.5,287.833 310.5,287.5 Z"/></g>
<g><path style="opacity:0.004" fill="#fefffe" d="M 431.5,308.5 C 432.833,309.167 432.833,309.167 431.5,308.5 Z"/></g>
<g><path style="opacity:0.004" fill="#fefffe" d="M 373.5,309.5 C 374.833,310.167 374.833,310.167 373.5,309.5 Z"/></g>
<g><path style="opacity:0.004" fill="#fefffe" d="M 126.5,310.5 C 127.833,311.167 127.833,311.167 126.5,310.5 Z"/></g>
<g><path style="opacity:0.004" fill="#fefffe" d="M 162.5,317.5 C 163.833,318.167 163.833,318.167 162.5,317.5 Z"/></g>
<g><path style="opacity:0.004" fill="#fefffe" d="M 128.5,320.5 C 129.833,321.167 129.833,321.167 128.5,320.5 Z"/></g>
<g><path style="opacity:0.004" fill="#fefffe" d="M 130.5,326.5 C 131.833,327.167 131.833,327.167 130.5,326.5 Z"/></g>
<g><path style="opacity:0.004" fill="#fefffe" d="M 156.5,335.5 C 157.833,336.167 157.833,336.167 156.5,335.5 Z"/></g>
<g><path style="opacity:0.004" fill="#fefffe" d="M 189.5,337.5 C 190.833,338.167 190.833,338.167 189.5,337.5 Z"/></g>
<g><path style="opacity:0.004" fill="#fefffe" d="M 278.5,337.5 C 279.833,338.167 279.833,338.167 278.5,337.5 Z"/></g>
<g><path style="opacity:0.004" fill="#fefffe" d="M 60.5,339.5 C 61.8333,340.167 61.8333,340.167 60.5,339.5 Z"/></g>
<g><path style="opacity:0.004" fill="#fefffe" d="M 98.5,339.5 C 99.8333,340.167 99.8333,340.167 98.5,339.5 Z"/></g>
<g><path style="opacity:0.004" fill="#fefffe" d="M 314.5,339.5 C 315.833,340.167 315.833,340.167 314.5,339.5 Z"/></g>
<g><path style="opacity:0.004" fill="#fefffe" d="M 298.5,341.5 C 299.833,342.167 299.833,342.167 298.5,341.5 Z"/></g>
</svg>
